<svg width="31" height="25" viewBox="0 0 31 25" fill="none" xmlns="http://www.w3.org/2000/svg">
<path d="M15.7754 15.9085L13.1849 8.5825C13.0309 8.1975 12.8659 7.7465 12.6899 7.2295C12.5249 6.7125 12.3654 6.1515 12.2114 5.5465C12.0574 6.1625 11.8924 6.7345 11.7164 7.2625C11.5514 7.7795 11.3919 8.2305 11.2379 8.6155L8.66392 15.9085H15.7754ZM24.0914 25H20.2469C19.8179 25 19.4659 24.901 19.1909 24.703C18.9269 24.494 18.7289 24.23 18.5969 23.911L16.9799 19.3405H7.44292L5.82592 23.911C5.71592 24.186 5.52342 24.439 5.24842 24.67C4.97342 24.89 4.62692 25 4.20892 25H0.331418L9.68692 1.0585H14.7524L24.0914 25ZM30.3663 7.9885V25H25.8123V7.9885H30.3663ZM30.9108 3.154C30.9108 3.539 30.8338 3.8965 30.6798 4.2265C30.5258 4.5565 30.3168 4.848 30.0528 5.101C29.7998 5.354 29.4973 5.552 29.1453 5.695C28.8043 5.838 28.4358 5.9095 28.0398 5.9095C27.6658 5.9095 27.3083 5.838 26.9673 5.695C26.6373 5.552 26.3458 5.354 26.0928 5.101C25.8398 4.848 25.6363 4.5565 25.4823 4.2265C25.3393 3.8965 25.2678 3.539 25.2678 3.154C25.2678 2.769 25.3393 2.4115 25.4823 2.0815C25.6363 1.7405 25.8398 1.4435 26.0928 1.1905C26.3458 0.937499 26.6373 0.739499 26.9673 0.596498C27.3083 0.453498 27.6658 0.381998 28.0398 0.381998C28.4358 0.381998 28.8043 0.453498 29.1453 0.596498C29.4973 0.739499 29.7998 0.937499 30.0528 1.1905C30.3168 1.4435 30.5258 1.7405 30.6798 2.0815C30.8338 2.4115 30.9108 2.769 30.9108 3.154Z" fill="#EE7A19"/>
</svg>
